<svg width="29" height="29" viewBox="0 0 29 29" fill="none" xmlns="http://www.w3.org/2000/svg">
<path d="M14.6441 1.90381V3.17788M3.17739 14.6445H1.90332M6.36258 6.36307L5.59801 5.5985M22.9255 6.36307L23.6903 5.5985M27.3848 14.6445H26.1107M12.0959 16.5557H17.1922M14.6441 16.5557V22.926M19.1033 20.8543C21.0324 19.4666 22.2885 17.2023 22.2885 14.6445C22.2885 10.4226 18.866 7.0001 14.6441 7.0001C10.4222 7.0001 6.99962 10.4226 6.99962 14.6445C6.99962 17.2023 8.25577 19.4666 10.1848 20.8543V23.3083C10.1848 24.7353 10.1848 25.4489 10.4625 25.994C10.7068 26.4734 11.0967 26.8633 11.5761 27.1076C12.1212 27.3853 12.8347 27.3853 14.2618 27.3853H15.0263C16.4534 27.3853 17.1669 27.3853 17.712 27.1076C18.1915 26.8633 18.5813 26.4734 18.8256 25.994C19.1033 25.4489 19.1033 24.7354 19.1033 23.3083V20.8543Z" stroke="#E4BB13" stroke-width="2" stroke-linecap="round" stroke-linejoin="round"/>
</svg>
